HIERARCHY
ROOT hip
{
	OFFSET 0.000000 0.000000 0.000000 
	CHANNELS 6 Xposition Yposition Zposition Xrotation Zrotation Yrotation
	JOINT abdomen
	{
		OFFSET 0.000000 3.402643 0.000000 
		CHANNELS 3 Xrotation Zrotation Yrotation
		JOINT chest
		{
			OFFSET 0.000000 8.438565 -0.680529 
			CHANNELS 3 Xrotation Zrotation Yrotation
			JOINT neck
			{
				OFFSET 0.000000 10.207942 -0.272212 
				CHANNELS 3 Xrotation Zrotation Yrotation
				JOINT head
				{
					OFFSET 0.000000 3.130431 0.000000 
					CHANNELS 3 Xrotation Zrotation Yrotation
					End Site
					{
						OFFSET 0.000000 3.130435 0.000000 
					}
				}
			}
			JOINT lCollar
			{
				OFFSET 3.470700 6.669187 -0.816635 
				CHANNELS 3 Yrotation Zrotation Xrotation
				JOINT lShldr
				{
					OFFSET 3.198488 0.000000 0.000000 
					CHANNELS 3 Zrotation Yrotation Xrotation
					JOINT lForeArm
					{
						OFFSET 10.139888 0.000000 0.000000 
						CHANNELS 3 Yrotation Zrotation Xrotation
						JOINT lHand
						{
							OFFSET 8.370511 0.000000 0.000000 
							CHANNELS 3 Zrotation Yrotation Xrotation
							End Site
							{
								OFFSET 4.083176 0.000000 0.000000 
							}
						}
					}
				}
			}
			JOINT rCollar
			{
				OFFSET -3.470700 6.669187 -0.816635 
				CHANNELS 3 Yrotation Zrotation Xrotation
				JOINT rShldr
				{
					OFFSET -3.198488 0.000000 0.000000 
					CHANNELS 3 Zrotation Yrotation Xrotation
					JOINT rForeArm
					{
						OFFSET -10.139888 0.000000 0.000000 
						CHANNELS 3 Yrotation Zrotation Xrotation
						JOINT rHand
						{
							OFFSET -8.370511 0.000000 0.000000 
							CHANNELS 3 Zrotation Yrotation Xrotation
							End Site
							{
								OFFSET -4.083176 0.000000 0.000000 
							}
						}
					}
				}
			}
		}
	}
	JOINT lThigh
	{
		OFFSET 5.308129 -1.633274 1.361059 
		CHANNELS 3 Xrotation Zrotation Yrotation
		JOINT lShin
		{
			OFFSET -2.041588 -20.007561 0.000000 
			CHANNELS 3 Xrotation Zrotation Yrotation
			JOINT lFoot
			{
				OFFSET 0.000000 -19.190928 -1.224953 
				CHANNELS 3 Xrotation Yrotation Zrotation
				End Site
				{
					OFFSET 0.000000 -2.449906 4.627600 
				}
			}
		}
	}
	JOINT rThigh
	{
		OFFSET -5.308129 -1.633274 1.361059 
		CHANNELS 3 Xrotation Zrotation Yrotation
		JOINT rShin
		{
			OFFSET 2.041588 -20.007561 0.000000 
			CHANNELS 3 Xrotation Zrotation Yrotation
			JOINT rFoot
			{
				OFFSET 0.000000 -19.190928 -1.224953 
				CHANNELS 3 Xrotation Yrotation Zrotation
				End Site
				{
					OFFSET 0.000000 -2.449906 4.627600 
				}
			}
		}
	}
}
MOTION
Frames: 11
Frame Time: 0.016667
-2.324140 48.587322 -17.785427 -8.898312 -8.355787 -14.147660 44.664364 7.726178 4.404580 4.312523 2.860843 -1.768700 -1.035672 -2.724858 0.007151 0.118078 -12.393138 47.346123 -8.917255 -17.244442 -0.916200 -50.879032 -13.973472 2.348004 -102.160072 3.145033 1.075281 -31.004902 -6.666953 7.018890 5.778380 7.637789 -0.404872 65.900421 9.831966 0.638137 123.266937 5.000000 -18.682878 27.449869 -9.538270 -1.727374 -22.879168 29.070225 -0.017054 43.458832 -3.088223 -3.093942 -5.663395 -6.447202 -13.441336 12.885172 -11.929270 -5.497843 38.287292 1.863271 1.501906 -29.888502 -13.846910 11.003798 
-2.343598 48.567101 -17.772999 -9.228210 -8.367754 -14.080074 44.682613 7.807425 4.372288 4.311132 2.831515 -1.827248 -0.888729 -2.764941 0.003350 0.220610 -12.463679 47.374313 -8.977490 -17.341951 -0.921235 -50.709385 -13.954590 2.288358 -102.085587 3.424147 1.117471 -30.905285 -6.751274 6.904275 5.750000 7.764575 -0.411428 65.946243 9.305053 -0.213251 123.545456 5.000000 -19.152050 27.116993 -9.573574 -1.772151 -22.573980 29.135689 0.229159 43.536236 -3.097965 -3.113086 -5.680767 -6.743011 -13.476389 13.163256 -11.981820 -5.536849 38.465851 1.814429 1.477128 -29.985773 -13.873341 10.974380 
-2.354868 48.546154 -17.759077 -9.504234 -8.426378 -14.031808 44.689468 7.923284 4.399808 4.310356 2.821733 -1.856522 -0.790604 -2.814678 0.000530 0.318208 -12.576337 47.339798 -9.028139 -17.449219 -0.926771 -50.550060 -13.941155 2.241215 -102.030502 3.711191 1.181072 -30.778872 -6.832392 6.737878 5.701887 7.862107 -0.416470 65.971825 8.887459 -0.911364 123.740204 5.000000 -19.456692 27.057409 -9.496168 -1.938385 -22.333904 29.247772 0.390457 43.670322 -3.144173 -3.149853 -5.750432 -6.927287 -13.468293 13.425503 -11.991454 -5.538767 38.574448 1.804209 1.461153 -30.093882 -13.846459 10.982647 
-2.360676 48.524746 -17.744165 -9.742435 -8.513088 -13.996081 44.682213 8.075894 4.466569 4.328731 2.831477 -1.876029 -0.741297 -2.874072 -0.000358 0.397222 -12.726971 47.263474 -9.068867 -17.546730 -0.931801 -50.401043 -13.933253 2.204164 -101.965492 3.997604 1.256713 -30.640509 -6.897186 6.560210 5.634106 7.940137 -0.420504 65.978012 8.525937 -1.530523 123.901596 5.000000 -19.673599 27.169624 -9.351488 -2.210356 -22.137455 29.363676 0.540427 43.805248 -3.156854 -3.203618 -5.875342 -7.037857 -13.413514 13.640615 -11.962159 -5.511305 38.700699 1.814535 1.481492 -30.226343 -13.899831 10.976668 
-2.363447 48.504292 -17.728619 -9.970981 -8.599822 -13.958937 44.664589 8.232403 4.523815 4.327083 2.841212 -1.915054 -0.672449 -2.914155 -0.004164 0.462002 -12.864724 47.183220 -9.119203 -17.634491 -0.936325 -50.250862 -13.894839 2.126638 -101.910675 4.284354 1.326691 -30.537260 -6.968297 6.426700 5.584564 8.028866 -0.415416 65.964806 8.210998 -2.067947 124.008835 5.000000 -19.818201 27.352646 -9.185378 -2.503877 -21.957317 29.494776 0.654159 43.948792 -3.202533 -3.251337 -5.965324 -7.236085 -13.403493 13.879780 -11.977716 -5.504214 38.777359 1.843670 1.505486 -30.343676 -13.876769 10.993114 
-2.354076 48.487633 -17.710527 -10.170083 -8.648666 -13.921810 44.635414 8.373280 4.574961 4.295504 2.811861 -1.993592 -0.574300 -2.915613 -0.013808 0.525879 -12.933847 47.129326 -9.187732 -17.644245 -0.936828 -50.123222 -13.729250 1.944583 -101.895065 4.523876 1.372951 -30.567770 -7.050104 6.557032 5.585286 8.126390 -0.420456 65.897446 8.041427 -2.292814 123.897362 5.000000 -19.679272 27.800566 -8.972425 -2.963916 -21.775238 29.528578 0.756763 44.054901 -3.205517 -3.299314 -6.027270 -7.281541 -13.356864 14.098471 -12.029634 -5.531690 38.822891 1.872882 1.576261 -30.397501 -13.863848 10.998113 
-2.344707 48.470985 -17.692438 -10.369247 -8.697521 -13.884696 44.607513 8.521120 4.628314 4.253525 2.792261 -2.081402 -0.466881 -2.905957 -0.015267 0.582535 -13.009726 47.075535 -9.246661 -17.663748 -0.937833 -49.983997 -13.570693 1.755026 -101.879738 4.763617 1.415727 -30.607347 -7.135650 6.680266 5.587422 8.222963 -0.436512 65.819572 7.879744 -2.522453 123.790550 5.000000 -19.540075 28.237350 -8.740726 -3.423402 -21.608154 29.575905 0.852246 44.200344 -3.205528 -3.349123 -6.083141 -7.392872 -13.336647 14.311584 -12.086984 -5.551351 38.869053 1.921582 1.614727 -30.469040 -13.865861 10.987195 
-2.328320 48.462902 -17.671909 -10.570460 -8.706635 -13.894345 44.583332 8.597329 4.646619 4.203968 2.782476 -2.100911 -0.368735 -2.907416 -0.024911 0.661997 -13.078803 47.051773 -9.317749 -17.642666 -0.948971 -49.872059 -13.412900 1.619110 -101.856865 5.000000 1.484604 -30.607710 -7.180666 6.739470 5.520125 8.359507 -0.443585 65.594162 7.890105 -2.434155 123.619705 5.000000 -19.290930 28.346561 -8.848825 -3.391682 -21.384647 29.586884 0.965286 44.257931 -3.231903 -3.353986 -6.199851 -7.466362 -13.350213 14.497235 -12.174578 -5.496086 38.885841 1.970625 1.651184 -30.520351 -13.916030 10.969718 
-2.310183 48.456966 -17.650778 -10.751525 -8.705538 -13.924762 44.566624 8.671403 4.641836 4.155139 2.782477 -2.100911 -0.280354 -2.908875 -0.034555 0.756403 -13.138974 47.035122 -9.385938 -17.632902 -0.948466 -49.750504 -13.261008 1.491460 -101.834717 5.000000 1.558833 -30.587654 -7.206234 6.794785 5.443237 8.515557 -0.451666 65.326714 7.948105 -2.266025 123.433418 5.000000 -19.009758 28.378839 -9.051276 -3.243299 -21.140564 29.557821 1.116909 44.297470 -3.225165 -3.354370 -6.239329 -7.484824 -13.309668 14.701557 -12.300736 -5.439771 38.911491 2.022956 1.709105 -30.595095 -13.900104 10.963705 
-2.294664 48.453403 -17.631197 -10.893527 -8.704438 -13.953699 44.519001 8.728651 4.635742 4.124692 2.811755 -2.120427 -0.221234 -2.958612 -0.036900 0.812569 -13.216496 47.064384 -9.366238 -17.623150 -0.947963 -49.634819 -13.192370 1.422087 -101.785286 5.000000 1.645621 -30.600401 -7.243647 6.807189 5.356289 8.632601 -0.457725 65.045830 8.069156 -2.011187 123.227570 5.000000 -18.719614 28.310848 -9.249145 -3.141287 -20.965216 29.529127 1.264633 44.337532 -3.215429 -3.343919 -6.276159 -7.507562 -13.292218 14.850244 -12.400560 -5.395657 38.900177 2.058311 1.720210 -30.625055 -13.904755 10.978079 
-2.283083 48.453403 -17.613955 -10.972842 -8.674540 -13.992287 44.409718 8.788604 4.613362 4.111910 2.899599 -2.159454 -0.220128 -3.096710 -0.035746 0.823247 -13.326360 47.164829 -9.249560 -17.652428 -0.949477 -49.517910 -13.243473 1.469388 -101.680115 5.000000 1.753033 -30.630936 -7.278826 6.744193 5.249264 8.681379 -0.460251 64.749138 8.292553 -1.632881 122.987610 5.000000 -18.411091 28.108053 -9.469391 -3.110438 -20.827124 29.517469 1.352297 44.344608 -3.244800 -3.384449 -6.330652 -7.523305 -13.295196 14.947846 -12.469119 -5.393628 38.851021 2.048598 1.733347 -30.632732 -13.917386 11.005116 
